<svg width="35" height="35" viewBox="0 0 35 35" fill="none" xmlns="http://www.w3.org/2000/svg">
<path d="M34.7239 33.2701L25.9152 24.4614C28.4271 21.5726 29.7193 17.8214 29.5194 13.9985C29.3195 10.1756 27.6431 6.57963 24.8436 3.96863C22.0441 1.35763 18.3401 -0.0644205 14.5126 0.00224218C10.685 0.0689048 7.03288 1.61907 4.32597 4.32597C1.61907 7.03288 0.0689048 10.685 0.00224218 14.5126C-0.0644205 18.3401 1.35763 22.0441 3.96863 24.8436C6.57963 27.6431 10.1756 29.3195 13.9985 29.5194C17.8214 29.7193 21.5726 28.4271 24.4614 25.9152L33.2701 34.7239C33.4651 34.9056 33.723 35.0045 33.9895 34.9998C34.256 34.9951 34.5102 34.8872 34.6987 34.6987C34.8872 34.5102 34.9951 34.256 34.9998 33.9895C35.0045 33.723 34.9056 33.4651 34.7239 33.2701ZM2.10866 14.7954C2.10866 12.2862 2.85273 9.83336 4.24677 7.74704C5.64081 5.66071 7.62221 4.03462 9.94041 3.07439C12.2586 2.11416 14.8095 1.86292 17.2705 2.35244C19.7315 2.84196 21.992 4.05025 23.7663 5.82453C25.5406 7.5988 26.7489 9.85937 27.2384 12.3204C27.7279 14.7813 27.4767 17.3322 26.5165 19.6504C25.5562 21.9686 23.9301 23.95 21.8438 25.3441C19.7575 26.7381 17.3046 27.4822 14.7954 27.4822C11.4319 27.4781 8.20738 26.1401 5.82904 23.7618C3.4507 21.3835 2.11275 18.1589 2.10866 14.7954Z" fill="black"/>
</svg>
